<?xml version="1.0" encoding="UTF-8"?>
<!DOCTYPE svg PUBLIC "-//W3C//DTD SVG 1.1//EN" "http://www.w3.org/Graphics/SVG/1.1/DTD/svg11.dtd">
<svg xmlns="http://www.w3.org/2000/svg" version="1.1" width="1005px" height="431px" style="shape-rendering:geometricPrecision; text-rendering:geometricPrecision; image-rendering:optimizeQuality; fill-rule:evenodd; clip-rule:evenodd" xmlns:xlink="http://www.w3.org/1999/xlink">
<g><path style="opacity:0.943" fill="#201a46" d="M 829.5,1.5 C 833.379,3.2708 837.379,4.7708 841.5,6C 852.515,6.16758 863.515,6.66758 874.5,7.5C 875.624,13.4478 875.79,19.4478 875,25.5C 866.579,26.649 858.079,26.8157 849.5,26C 841.738,25.3688 835.238,22.2021 830,16.5C 830.816,11.4923 830.649,6.49225 829.5,1.5 Z"/></g>
<g><path style="opacity:0.94" fill="#201a45" d="M 781.5,14.5 C 790.275,15.7629 799.108,15.7629 808,14.5C 819.237,14.2034 828.404,18.3701 835.5,27C 838.554,29.1939 841.888,30.8605 845.5,32C 860.922,32.5995 876.256,32.9328 891.5,33C 892.478,39.4102 892.811,45.9102 892.5,52.5C 878.829,52.6666 865.163,52.4999 851.5,52C 842.795,48.6354 835.129,43.6354 828.5,37C 825.899,36.0797 823.232,35.413 820.5,35C 806.837,34.5001 793.171,34.3334 779.5,34.5C 778.934,27.5491 779.601,20.8824 781.5,14.5 Z"/></g>
<g><path style="opacity:0.928" fill="#201a46" d="M 183.5,32.5 C 192.5,32.5 201.5,32.5 210.5,32.5C 210.649,33.552 210.483,34.552 210,35.5C 202.167,45.3333 194.333,55.1667 186.5,65C 178.173,65.4997 169.84,65.6664 161.5,65.5C 162.44,62.2857 163.94,59.2857 166,56.5C 172.051,48.6219 177.885,40.6219 183.5,32.5 Z"/></g>
<g><path style="opacity:0.933" fill="#201a45" d="M 388.5,32.5 C 397.5,32.5 406.5,32.5 415.5,32.5C 415.649,33.552 415.483,34.552 415,35.5C 407.167,45.3333 399.333,55.1667 391.5,65C 383.173,65.4997 374.84,65.6664 366.5,65.5C 366.351,64.448 366.517,63.448 367,62.5C 374.385,52.6212 381.552,42.6212 388.5,32.5 Z"/></g>
<g><path style="opacity:0.947" fill="#201a46" d="M 659.5,32.5 C 667.5,32.5 675.5,32.5 683.5,32.5C 683.333,66.1683 683.5,99.835 684,133.5C 686.338,143.1 692.504,148.1 702.5,148.5C 702.5,156.167 702.5,163.833 702.5,171.5C 688.024,173.398 675.857,169.065 666,158.5C 662.627,153.355 660.627,147.689 660,141.5C 659.5,105.168 659.333,68.8349 659.5,32.5 Z"/></g>
<g><path style="opacity:0.958" fill="#201a46" d="M 65.5,36.5 C 81.2994,34.3564 95.6327,37.8564 108.5,47C 112.23,50.4634 115.23,54.4634 117.5,59C 110.924,63.8728 104.09,68.3728 97,72.5C 86.971,59.5037 74.971,57.1704 61,65.5C 57.2304,71.7145 58.0637,77.2145 63.5,82C 77.6716,88.2808 91.6716,94.9475 105.5,102C 119.573,115.353 123.073,131.186 116,149.5C 108.618,163.119 97.1185,170.619 81.5,172C 64.5573,173.914 48.5573,170.914 33.5,163C 31.0319,161.784 29.0319,160.117 27.5,158C 31.1127,150.607 35.1127,143.44 39.5,136.5C 53.4443,146.655 68.7776,149.821 85.5,146C 91.667,142.155 93.8337,136.655 92,129.5C 91.1166,126.898 89.6166,124.731 87.5,123C 73.629,117.046 59.9624,110.713 46.5,104C 30.5296,90.1434 27.3629,73.6434 37,54.5C 44.0687,44.5542 53.5687,38.5542 65.5,36.5 Z"/></g>
<g><path style="opacity:0.944" fill="#201a46" d="M 769.5,42.5 C 787.17,42.3334 804.836,42.5001 822.5,43C 825.637,43.6011 828.637,44.6011 831.5,46C 835.5,49.3333 839.5,52.6667 843.5,56C 846.618,57.893 849.951,59.2264 853.5,60C 875.831,60.5 898.164,60.6666 920.5,60.5C 920.454,67.1908 920.788,73.8574 921.5,80.5C 900.831,80.6666 880.164,80.5 859.5,80C 850.443,77.6372 842.776,72.9705 836.5,66C 834.283,64.7246 831.949,63.7246 829.5,63C 809.503,62.5 789.503,62.3334 769.5,62.5C 769.5,55.8333 769.5,49.1667 769.5,42.5 Z"/></g>
<g><path style="opacity:0.933" fill="#201a47" d="M 816.5,68.5 C 822.598,68.6788 828.598,69.5121 834.5,71C 839.833,75 845.167,79 850.5,83C 852.717,84.2754 855.051,85.2754 857.5,86C 893.83,86.7976 930.163,87.2976 966.5,87.5C 966.5,93.8333 966.5,100.167 966.5,106.5C 932.165,106.667 897.832,106.5 863.5,106C 855.547,103.687 848.88,99.3542 843.5,93C 839.877,90.5212 835.877,89.1878 831.5,89C 806.836,88.5 782.169,88.3334 757.5,88.5C 757.5,82.1667 757.5,75.8333 757.5,69.5C 777.34,69.8304 797.007,69.4971 816.5,68.5 Z"/></g>
<g><path style="opacity:0.948" fill="#201a46" d="M 169.5,73.5 C 193.8,71.984 209.966,82.6506 218,105.5C 219.968,113.72 220.801,122.053 220.5,130.5C 198.5,130.5 176.5,130.5 154.5,130.5C 155.968,139.474 160.968,145.64 169.5,149C 183.663,151.922 197.33,150.422 210.5,144.5C 211.833,152.167 211.833,159.833 210.5,167.5C 194.747,172.988 178.747,173.821 162.5,170C 136.3,159.787 125.467,140.621 130,112.5C 134.468,90.531 147.635,77.531 169.5,73.5 Z M 195.5,111.5 C 181.99,111.829 168.656,111.496 155.5,110.5C 161.072,95.0471 171.405,90.5471 186.5,97C 191.42,100.681 194.42,105.514 195.5,111.5 Z"/></g>
<g><path style="opacity:0.949" fill="#201a46" d="M 279.5,73.5 C 303.721,70.3386 317.888,80.672 322,104.5C 322.5,126.497 322.667,148.497 322.5,170.5C 314.167,170.5 305.833,170.5 297.5,170.5C 297.667,149.831 297.5,129.164 297,108.5C 294.406,100.25 288.739,96.2504 280,96.5C 271.173,97.2469 263.839,100.914 258,107.5C 257.5,128.497 257.333,149.497 257.5,170.5C 249.5,170.5 241.5,170.5 233.5,170.5C 233.5,138.833 233.5,107.167 233.5,75.5C 240.5,75.5 247.5,75.5 254.5,75.5C 255.224,78.8426 256.057,82.176 257,85.5C 263.509,79.4975 271.009,75.4975 279.5,73.5 Z"/></g>
<g><path style="opacity:0.948" fill="#201a46" d="M 374.5,73.5 C 398.824,72.0167 414.991,82.6834 423,105.5C 425.047,113.709 425.881,122.042 425.5,130.5C 403.5,130.5 381.5,130.5 359.5,130.5C 361.061,139.897 366.394,146.063 375.5,149C 382.767,150.515 390.101,150.848 397.5,150C 403.596,148.8 409.596,147.3 415.5,145.5C 415.666,152.841 415.5,160.174 415,167.5C 398.357,173.463 381.524,173.963 364.5,169C 347.656,162.491 337.823,150.324 335,132.5C 330.832,100.755 343.999,81.0885 374.5,73.5 Z M 378.5,93.5 C 389.884,93.8796 397.217,99.5463 400.5,110.5C 387.183,111.499 373.85,111.833 360.5,111.5C 362.905,101.761 368.905,95.7611 378.5,93.5 Z"/></g>
<g><path style="opacity:0.957" fill="#201a46" d="M 471.5,73.5 C 483.756,72.4827 495.089,75.1494 505.5,81.5C 507.283,79.9775 507.949,77.9775 507.5,75.5C 514.833,75.5 522.167,75.5 529.5,75.5C 529.667,108.502 529.5,141.502 529,174.5C 524.115,195.385 510.948,207.219 489.5,210C 470.351,212.476 452.351,209.143 435.5,200C 438.593,193.317 441.26,186.484 443.5,179.5C 454.762,184.607 466.595,187.607 479,188.5C 498.712,186.79 507.378,176.123 505,156.5C 491.208,170.46 475.042,173.96 456.5,167C 444.316,161.154 436.482,151.654 433,138.5C 428.822,120.214 432.155,103.547 443,88.5C 450.978,80.4294 460.478,75.4294 471.5,73.5 Z M 478.5,95.5 C 487.797,95.1922 496.464,97.3589 504.5,102C 505.65,110.755 505.816,119.588 505,128.5C 498.676,145.412 486.843,151.245 469.5,146C 458.391,139.266 454.224,129.433 457,116.5C 460.124,105.208 467.29,98.2081 478.5,95.5 Z"/></g>
<g><path style="opacity:0.956" fill="#211a47" d="M 583.5,73.5 C 595.525,72.6143 606.859,74.9476 617.5,80.5C 618.452,78.9547 618.785,77.288 618.5,75.5C 625.833,75.5 633.167,75.5 640.5,75.5C 640.333,96.5026 640.5,117.503 641,138.5C 641.36,140.608 642.027,142.608 643,144.5C 645.378,146.709 647.545,149.042 649.5,151.5C 647.276,156.949 644.776,162.282 642,167.5C 641.128,169.613 639.628,170.946 637.5,171.5C 628.723,169.226 622.557,163.893 619,155.5C 610.942,167.113 599.775,172.78 585.5,172.5C 564.241,171.402 550.407,160.735 544,140.5C 539.894,122.976 542.56,106.643 552,91.5C 560.433,81.7052 570.933,75.7052 583.5,73.5 Z M 591.5,96.5 C 599.912,96.5511 607.912,98.3845 615.5,102C 616.648,110.088 616.815,118.254 616,126.5C 611.6,144.236 600.433,151.403 582.5,148C 568.697,140.375 564.197,128.875 569,113.5C 573.232,103.427 580.732,97.7602 591.5,96.5 Z"/></g>
<g><path style="opacity:0.821" fill="#fe0100" d="M 742.5,97.5 C 742.672,98.4916 742.338,99.1583 741.5,99.5C 735.564,99.8226 729.731,99.8226 724,99.5C 723.5,92.8417 723.334,86.175 723.5,79.5C 729.833,79.5 736.167,79.5 742.5,79.5C 742.5,85.5 742.5,91.5 742.5,97.5 Z"/></g>
<g><path style="opacity:0.952" fill="#008422" d="M 742.5,97.5 C 773.835,97.3334 805.168,97.5 836.5,98C 839.376,98.4379 842.043,99.4379 844.5,101C 850.458,108.479 858.125,113.146 867.5,115C 898.839,115.167 930.172,115.667 961.5,116.5C 962.46,122.773 962.793,129.107 962.5,135.5C 931.145,135.902 899.812,135.402 868.5,134C 861.433,131.599 855.433,127.599 850.5,122C 848.112,120.139 845.446,118.806 842.5,118C 808.835,117.5 775.168,117.333 741.5,117.5C 741.5,111.5 741.5,105.5 741.5,99.5C 742.338,99.1583 742.672,98.4916 742.5,97.5 Z"/></g>
<g><path style="opacity:0.004" fill="#000000" d="M 155.5,110.5 C 168.656,111.496 181.99,111.829 195.5,111.5C 181.994,112.826 168.328,112.826 154.5,111.5C 154.624,110.893 154.957,110.56 155.5,110.5 Z"/></g>
<g><path style="opacity:0.921" fill="#ffde00" d="M 824.5,124.5 C 839.753,121.303 852.42,125.47 862.5,137C 866.281,139.225 870.281,140.891 874.5,142C 911.832,142.5 949.165,142.667 986.5,142.5C 987.276,149.137 987.609,155.804 987.5,162.5C 952.832,162.667 918.165,162.5 883.5,162C 873.372,161.103 865.038,156.769 858.5,149C 852.574,145.316 846.074,143.482 839,143.5C 834.219,144.419 829.385,144.752 824.5,144.5C 824.5,137.833 824.5,131.167 824.5,124.5 Z"/></g>
<g><path style="opacity:0.93" fill="#221b47" d="M 755.5,150.5 C 787.168,150.333 818.835,150.5 850.5,151C 853.376,151.438 856.043,152.438 858.5,154C 864.458,161.479 872.125,166.146 881.5,168C 920.165,168.5 958.832,168.667 997.5,168.5C 997.5,175.167 997.5,181.833 997.5,188.5C 959.156,188.743 920.823,188.243 882.5,187C 875.09,184.26 868.757,179.926 863.5,174C 857.848,171.207 851.848,169.707 845.5,169.5C 815.511,170.625 785.511,170.625 755.5,169.5C 755.5,163.167 755.5,156.833 755.5,150.5 Z"/></g>
<g><path style="opacity:0.915" fill="#201b46" d="M 762.5,176.5 C 793.168,176.333 823.835,176.5 854.5,177C 858.098,177.154 861.431,178.154 864.5,180C 870.673,185.919 877.673,190.586 885.5,194C 893.159,194.5 900.826,194.666 908.5,194.5C 908.5,201.167 908.5,207.833 908.5,214.5C 900.646,215.089 892.979,214.255 885.5,212C 879.601,208.769 874.268,204.769 869.5,200C 867.043,198.438 864.376,197.438 861.5,197C 828.502,196.5 795.502,196.333 762.5,196.5C 762.5,189.833 762.5,183.167 762.5,176.5 Z"/></g>
<g><path style="opacity:0.853" fill="#211b47" d="M 446.5,214.5 C 454.84,214.334 463.173,214.5 471.5,215C 468.025,219.975 464.359,224.809 460.5,229.5C 452.528,230.498 444.528,230.831 436.5,230.5C 438.804,224.567 442.137,219.233 446.5,214.5 Z"/></g>
<g><path style="opacity:0.902" fill="#211b48" d="M 571.5,213.5 C 579.5,213.5 587.5,213.5 595.5,213.5C 595.5,221.5 595.5,229.5 595.5,237.5C 587.5,237.5 579.5,237.5 571.5,237.5C 571.5,229.5 571.5,221.5 571.5,213.5 Z"/></g>
<g><path style="opacity:0.958" fill="#201a47" d="M 71.5,239.5 C 97.5987,235.609 112.432,246.609 116,272.5C 116.5,293.831 116.667,315.164 116.5,336.5C 108.248,336.816 100.081,336.482 92,335.5C 91.6667,315.5 91.3333,295.5 91,275.5C 88.9099,266.916 83.4099,262.583 74.5,262.5C 64.6404,262.679 56.8071,266.679 51,274.5C 50.5,295.164 50.3334,315.831 50.5,336.5C 42.5803,336.815 34.747,336.482 27,335.5C 26.5,304.168 26.3334,272.835 26.5,241.5C 33.8333,241.5 41.1667,241.5 48.5,241.5C 49.0164,244.899 49.8497,248.232 51,251.5C 57.1014,246.04 63.9347,242.04 71.5,239.5 Z"/></g>
<g><path style="opacity:0.948" fill="#201a46" d="M 286.5,239.5 C 295,238.934 303.333,239.767 311.5,242C 317,244.833 321.167,249 324,254.5C 340.465,237.878 358.965,235.045 379.5,246C 385.818,252.139 389.318,259.639 390,268.5C 390.5,291.164 390.667,313.831 390.5,336.5C 382.5,336.5 374.5,336.5 366.5,336.5C 366.667,316.164 366.5,295.831 366,275.5C 363.146,264.313 355.979,260.146 344.5,263C 338.12,265.186 332.787,268.853 328.5,274C 329.829,294.47 329.829,314.97 328.5,335.5C 320.528,336.498 312.528,336.831 304.5,336.5C 304.667,315.831 304.5,295.164 304,274.5C 299.953,263.066 292.119,259.566 280.5,264C 275.786,266.051 271.619,268.885 268,272.5C 267.5,293.831 267.333,315.164 267.5,336.5C 259.5,336.5 251.5,336.5 243.5,336.5C 243.5,304.833 243.5,273.167 243.5,241.5C 250.532,241.17 257.532,241.503 264.5,242.5C 265.269,245.51 266.103,248.51 267,251.5C 272.656,245.987 279.156,241.987 286.5,239.5 Z"/></g>
<g><path style="opacity:0.948" fill="#201a46" d="M 440.5,239.5 C 469.797,237.547 487.297,250.881 493,279.5C 493.499,285.157 493.666,290.824 493.5,296.5C 471.49,296.167 449.49,296.5 427.5,297.5C 429.629,306.795 435.296,312.629 444.5,315C 457.915,317.298 470.915,315.798 483.5,310.5C 484.497,318.138 484.831,325.804 484.5,333.5C 468.721,338.746 452.721,339.58 436.5,336C 413.789,328.437 402.455,312.603 402.5,288.5C 402.548,262.144 415.214,245.811 440.5,239.5 Z M 445.5,259.5 C 458.302,259.056 465.969,265.056 468.5,277.5C 455.167,277.5 441.833,277.5 428.5,277.5C 430.767,268.235 436.434,262.235 445.5,259.5 Z"/></g>
<g><path style="opacity:0.961" fill="#211a47" d="M 648.5,239.5 C 660.936,238.121 672.603,240.454 683.5,246.5C 684.452,244.955 684.785,243.288 684.5,241.5C 691.833,241.5 699.167,241.5 706.5,241.5C 706.5,285.833 706.5,330.167 706.5,374.5C 698.5,374.5 690.5,374.5 682.5,374.5C 682.667,357.83 682.5,341.163 682,324.5C 670.672,336.719 656.838,340.885 640.5,337C 624.161,331.994 613.994,321.16 610,304.5C 606.559,289.053 608.559,274.387 616,260.5C 624.053,249.065 634.887,242.065 648.5,239.5 Z M 655.5,262.5 C 664.731,262.079 673.397,264.079 681.5,268.5C 682.891,278.21 682.725,287.877 681,297.5C 672.953,314.073 660.453,318.573 643.5,311C 632.49,299.937 630.657,287.437 638,273.5C 642.578,267.638 648.411,263.972 655.5,262.5 Z"/></g>
<g><path style="opacity:0.948" fill="#201a46" d="M 865.5,239.5 C 890.426,236.969 907.26,247.302 916,270.5C 918.004,279.053 918.837,287.719 918.5,296.5C 896.5,296.5 874.5,296.5 852.5,296.5C 854.132,306.301 859.798,312.468 869.5,315C 882.911,317.299 895.911,315.799 908.5,310.5C 909.251,311.376 909.751,312.376 910,313.5C 910.667,319.5 910.667,325.5 910,331.5C 908.299,333.41 906.133,334.577 903.5,335C 884.936,340.674 866.936,339.341 849.5,331C 831.22,317.862 824.054,300.029 828,277.5C 832.694,256.974 845.194,244.307 865.5,239.5 Z M 869.5,259.5 C 882.094,258.789 890.094,264.455 893.5,276.5C 880.183,277.499 866.85,277.833 853.5,277.5C 854.995,268.009 860.328,262.009 869.5,259.5 Z"/></g>
<g><path style="opacity:0.954" fill="#211b47" d="M 134.5,240.5 C 142.5,240.5 150.5,240.5 158.5,240.5C 158.333,260.169 158.5,279.836 159,299.5C 160.346,308.846 165.68,314.18 175,315.5C 184.484,315.092 192.484,311.092 199,303.5C 199.5,282.503 199.667,261.503 199.5,240.5C 207.5,240.5 215.5,240.5 223.5,240.5C 223.5,272.5 223.5,304.5 223.5,336.5C 216.492,336.666 209.492,336.5 202.5,336C 201.332,332.801 200.165,329.634 199,326.5C 183.151,340.154 165.984,341.987 147.5,332C 140.609,326.055 136.443,318.555 135,309.5C 134.5,286.502 134.333,263.502 134.5,240.5 Z"/></g>
<g><path style="opacity:0.954" fill="#201a47" d="M 550.5,240.5 C 553.833,240.5 557.167,240.5 560.5,240.5C 560.5,248.167 560.5,255.833 560.5,263.5C 548.518,263.1 538.685,267.433 531,276.5C 530.5,296.497 530.333,316.497 530.5,336.5C 522.5,336.5 514.5,336.5 506.5,336.5C 506.5,304.833 506.5,273.167 506.5,241.5C 514.5,241.5 522.5,241.5 530.5,241.5C 530.334,245.514 530.501,249.514 531,253.5C 535.799,246.524 542.299,242.19 550.5,240.5 Z"/></g>
<g><path style="opacity:0.939" fill="#211b47" d="M 571.5,241.5 C 579.5,241.5 587.5,241.5 595.5,241.5C 595.5,273.167 595.5,304.833 595.5,336.5C 587.5,336.5 579.5,336.5 571.5,336.5C 571.5,304.833 571.5,273.167 571.5,241.5 Z"/></g>
<g><path style="opacity:0.952" fill="#211b47" d="M 725.5,240.5 C 733.5,240.5 741.5,240.5 749.5,240.5C 749.333,260.169 749.5,279.836 750,299.5C 751.478,309.981 757.478,314.981 768,314.5C 777.366,314.78 784.699,311.113 790,303.5C 790.5,282.503 790.667,261.503 790.5,240.5C 798.5,240.5 806.5,240.5 814.5,240.5C 814.5,272.5 814.5,304.5 814.5,336.5C 807.492,336.666 800.492,336.5 793.5,336C 792.559,332.728 791.393,329.562 790,326.5C 774.983,339.685 758.483,341.851 740.5,333C 731.899,326.712 727.066,318.212 726,307.5C 725.5,285.169 725.333,262.836 725.5,240.5 Z"/></g>
<g><path style="opacity:0.859" fill="#201a45" d="M 40.5,381.5 C 43.9099,381.457 47.2432,381.957 50.5,383C 52.9455,385.482 52.7788,387.982 50,390.5C 46.7441,388.571 43.2441,388.071 39.5,389C 35.5,391.667 35.5,394.333 39.5,397C 44.5904,398.958 49.0904,401.792 53,405.5C 55.9296,416.947 51.4296,423.28 39.5,424.5C 36.3988,423.981 33.3988,423.147 30.5,422C 29.4238,420.274 29.2571,418.441 30,416.5C 30.5613,415.978 31.228,415.645 32,415.5C 37.3257,418.47 42.3257,418.136 47,414.5C 47.6667,412.833 47.6667,411.167 47,409.5C 42.7099,406.605 38.2099,404.105 33.5,402C 29.5631,397.038 29.0631,391.871 32,386.5C 34.3978,383.892 37.2312,382.225 40.5,381.5 Z"/></g>
<g><path style="opacity:0.869" fill="#201a45" d="M 77.5,382.5 C 79.7925,382.244 81.9592,382.577 84,383.5C 88.5987,396.463 93.0987,409.463 97.5,422.5C 95.9563,424.446 93.9563,424.946 91.5,424C 89.3594,420.425 87.6927,416.591 86.5,412.5C 82.2172,411.508 77.8839,411.174 73.5,411.5C 72.6441,415.57 71.4774,419.57 70,423.5C 67.9592,424.423 65.7925,424.756 63.5,424.5C 63.6495,423.448 63.4828,422.448 63,421.5C 61.0966,424.955 58.7632,425.288 56,422.5C 55.1859,420.098 55.3526,417.765 56.5,415.5C 61.1897,413.673 63.6897,415.339 64,420.5C 68.0265,407.582 72.5265,394.916 77.5,382.5 Z M 79.5,392.5 C 81.5314,396.237 83.1981,400.237 84.5,404.5C 81.5541,405.655 78.5541,405.821 75.5,405C 77.3346,400.996 78.6679,396.83 79.5,392.5 Z"/></g>
<g><path style="opacity:0.81" fill="#1e1943" d="M 100.5,414.5 C 106.191,414.554 107.858,417.221 105.5,422.5C 103.389,425.044 101.222,425.044 99,422.5C 98.1329,419.479 98.6329,416.812 100.5,414.5 Z"/></g>
</svg>
