<?xml version="1.0" encoding="UTF-8"?>
<svg id="svg858" xmlns="http://www.w3.org/2000/svg" viewBox="0 0 179.4 43.1">
  <defs>
    <style>
      .cls-1 {
        fill: #fff;
      }

      .cls-2 {
        fill: none;
        stroke: #fff;
        stroke-miterlimit: 10;
        stroke-width: 3px;
      }
    </style>
  </defs>
  <g>
    <path class="cls-1" d="m52.8,38.25h-4.72l-.76,2.24h-3.23l4.58-12.66h3.57l4.58,12.66h-3.26l-.76-2.24Zm-2.36-7.01l-1.55,4.63h3.12l-1.57-4.63Z"/>
    <path class="cls-1" d="m62.03,30.28c1.33,0,2.49.61,3.1,1.53v-4.67h3.08v13.35h-3.08v-1.44c-.56.92-1.62,1.59-3.1,1.59-2.47,0-4.44-2.02-4.44-5.19s1.97-5.16,4.44-5.16Zm.9,2.69c-1.15,0-2.2.87-2.2,2.47s1.05,2.51,2.2,2.51,2.2-.88,2.2-2.49-1.03-2.49-2.2-2.49Z"/>
    <path class="cls-1" d="m84.32,35.02c0-1.32-.76-2.04-1.93-2.04s-1.93.72-1.93,2.04v5.46h-3.07v-5.46c0-1.32-.76-2.04-1.93-2.04s-1.93.72-1.93,2.04v5.46h-3.08v-10.06h3.08v1.26c.6-.81,1.62-1.37,2.94-1.37,1.51,0,2.74.67,3.43,1.87.67-1.06,1.93-1.87,3.39-1.87,2.49,0,4.09,1.59,4.09,4.29v5.88h-3.07v-5.46Z"/>
    <path class="cls-1" d="m89.26,27.72c0-.94.74-1.68,1.84-1.68s1.82.74,1.82,1.68-.74,1.66-1.82,1.66-1.84-.74-1.84-1.66Zm.29,2.7h3.08v10.06h-3.08v-10.06Z"/>
    <path class="cls-1" d="m101.81,35.02c0-1.37-.76-2.13-1.93-2.13s-1.93.76-1.93,2.13v5.46h-3.08v-10.06h3.08v1.33c.61-.85,1.7-1.44,3.05-1.44,2.33,0,3.88,1.59,3.88,4.29v5.88h-3.07v-5.46Z"/>
    <path class="cls-1" d="m106.73,27.72c0-.94.74-1.68,1.84-1.68s1.82.74,1.82,1.68-.74,1.66-1.82,1.66-1.84-.74-1.84-1.66Zm.29,2.7h3.08v10.06h-3.08v-10.06Z"/>
    <path class="cls-1" d="m116.43,40.63c-2.69,0-4.49-1.5-4.63-3.44h3.05c.07.7.7,1.17,1.55,1.17.79,0,1.21-.36,1.21-.81,0-1.62-5.48-.45-5.48-4.15,0-1.71,1.46-3.12,4.09-3.12s4.04,1.44,4.24,3.43h-2.85c-.09-.68-.61-1.14-1.48-1.14-.72,0-1.12.29-1.12.77,0,1.61,5.45.47,5.5,4.22,0,1.75-1.55,3.07-4.08,3.07Z"/>
    <path class="cls-1" d="m122.89,32.98h-1.23v-2.56h1.23v-2.45h3.08v2.45h2.02v2.56h-2.02v4.04c0,.6.25.85.94.85h1.1v2.61h-1.57c-2.09,0-3.55-.88-3.55-3.5v-4Z"/>
    <path class="cls-1" d="m132.81,40.49h-3.08v-10.06h3.08v1.68c.7-1.06,1.8-1.78,3.16-1.78v3.26h-.85c-1.46,0-2.31.51-2.31,2.24v4.67Z"/>
    <path class="cls-1" d="m141.26,30.28c1.5,0,2.56.68,3.1,1.57v-1.43h3.08v10.06h-3.08v-1.42c-.56.88-1.62,1.57-3.12,1.57-2.45,0-4.42-2.02-4.42-5.19s1.97-5.16,4.44-5.16Zm.9,2.69c-1.15,0-2.2.87-2.2,2.47s1.05,2.51,2.2,2.51,2.2-.88,2.2-2.49-1.03-2.49-2.2-2.49Z"/>
    <path class="cls-1" d="m150.17,32.98h-1.23v-2.56h1.23v-2.45h3.08v2.45h2.02v2.56h-2.02v4.04c0,.6.25.85.94.85h1.1v2.61h-1.57c-2.09,0-3.55-.88-3.55-3.5v-4Z"/>
    <path class="cls-1" d="m156.72,27.72c0-.94.74-1.68,1.84-1.68s1.82.74,1.82,1.68-.74,1.66-1.82,1.66-1.84-.74-1.84-1.66Zm.29,2.7h3.08v10.06h-3.08v-10.06Z"/>
    <path class="cls-1" d="m162.63,32.98h-1.12v-2.56h1.12v-.29c0-2.63,1.62-3.93,4.69-3.77v2.61c-1.19-.07-1.61.29-1.61,1.35v.09h1.66v2.56h-1.66v7.5h-3.08v-7.5Z"/>
    <path class="cls-1" d="m172.91,40.63c-2.69,0-4.49-1.5-4.63-3.44h3.05c.07.7.7,1.17,1.55,1.17.79,0,1.21-.36,1.21-.81,0-1.62-5.48-.45-5.48-4.15,0-1.71,1.46-3.12,4.09-3.12s4.04,1.44,4.24,3.43h-2.85c-.09-.68-.61-1.14-1.48-1.14-.72,0-1.12.29-1.12.77,0,1.61,5.45.47,5.5,4.22,0,1.75-1.55,3.07-4.08,3.07Z"/>
  </g>
  <g>
    <path class="cls-1" d="m53.36,4c4.83,0,7.24,2.78,7.24,6.2,0,2.47-1.35,4.8-4.38,5.69l4.54,7.8h-5.41l-4.1-7.43h-1.15v7.43h-4.8V4h8.05Zm-.28,3.98h-2.97v4.88h2.97c1.8,0,2.64-.93,2.64-2.47,0-1.46-.84-2.41-2.64-2.41Z"/>
    <path class="cls-1" d="m81.3,13.85c0,5.84-4.04,9.85-10.32,9.85h-7.38V4h7.38c6.28,0,10.32,3.98,10.32,9.85Zm-10.63,5.7c3.62,0,5.75-2.08,5.75-5.7s-2.13-5.75-5.75-5.75h-2.27v11.45h2.27Z"/>
    <path class="cls-1" d="m97.41,4h5.08l-6.98,19.69h-6l-6.98-19.69h5.11l4.88,14.87,4.91-14.87Z"/>
  </g>
  <g>
    <path class="cls-2" d="m35.58,17.2v-6.31c0-2.32-1.88-4.21-4.21-4.21H6.11c-2.32,0-4.21,1.88-4.21,4.21v6.31m33.67,0H1.9m33.67,0v3.68M1.9,17.2v18.94c0,2.32,1.88,4.21,4.21,4.21h10.52M10.32,2.47v8.42M27.16,2.47v8.42"/>
    <path class="cls-2" d="m22.95,36.14l4.21,4.21,10.52-10.52"/>
  </g>
</svg>