<?xml version="1.0" encoding="utf-8"?>
<!-- Generator: Adobe Illustrator 27.3.1, SVG Export Plug-In . SVG Version: 6.00 Build 0)  -->
<svg version="1.1" id="Calque_1" xmlns="http://www.w3.org/2000/svg" xmlns:xlink="http://www.w3.org/1999/xlink" x="0px" y="0px"
	 viewBox="0 0 566.9 340.2" style="enable-background:new 0 0 566.9 340.2;" xml:space="preserve">
<style type="text/css">
	.st0{clip-path:url(#SVGID_00000039093300264689061700000005672238584676788869_);fill:#FFFFFF;}
	.st1{clip-path:url(#SVGID_00000039093300264689061700000005672238584676788869_);fill:#FF0000;}
	.st2{clip-path:url(#SVGID_00000039093300264689061700000005672238584676788869_);fill:#FFDE00;}
	.st3{clip-path:url(#SVGID_00000039093300264689061700000005672238584676788869_);fill:#008422;}
</style>
<g>
	<defs>
		<rect id="SVGID_1_" width="566.9" height="340.2"/>
	</defs>
	<clipPath id="SVGID_00000031919988361928395190000000031146729912601237_">
		<use xlink:href="#SVGID_1_"  style="overflow:visible;"/>
	</clipPath>
	<path style="clip-path:url(#SVGID_00000031919988361928395190000000031146729912601237_);fill:#FFFFFF;" d="M70.3,260.4
		c1,0.6,2.4,1.1,3.9,1.1c2.3,0,3.6-1.2,3.6-2.9c0-1.6-0.9-2.5-3.2-3.4c-2.8-1-4.5-2.5-4.5-4.9c0-2.7,2.2-4.6,5.5-4.6
		c1.7,0,3,0.4,3.8,0.8l-0.6,1.8c-0.5-0.3-1.7-0.8-3.2-0.8c-2.4,0-3.2,1.4-3.2,2.6c0,1.6,1,2.4,3.4,3.3c2.9,1.1,4.4,2.5,4.4,5
		c0,2.6-1.9,4.9-6,4.9c-1.7,0-3.5-0.5-4.4-1.1L70.3,260.4z"/>
	<path style="clip-path:url(#SVGID_00000031919988361928395190000000031146729912601237_);fill:#FFFFFF;" d="M88.9,258l-1.8,5.4
		h-2.3l5.8-17.1h2.7l5.8,17.1h-2.4L95,258H88.9z M94.5,256.2l-1.7-4.9c-0.4-1.1-0.6-2.1-0.9-3.1h-0.1c-0.2,1-0.5,2-0.8,3.1l-1.7,5
		H94.5z"/>
	<path style="clip-path:url(#SVGID_00000031919988361928395190000000031146729912601237_);fill:#FFFFFF;" d="M100.3,261.7
		c0-0.9,0.6-1.6,1.5-1.6c0.9,0,1.5,0.7,1.5,1.6c0,0.9-0.6,1.6-1.5,1.6C100.9,263.3,100.2,262.6,100.3,261.7"/>
	<path style="clip-path:url(#SVGID_00000031919988361928395190000000031146729912601237_);fill:#FFFFFF;" d="M81.2,261.7
		c0-0.9,0.6-1.6,1.5-1.6c0.9,0,1.5,0.7,1.5,1.6c0,0.9-0.6,1.6-1.5,1.6C81.8,263.3,81.2,262.6,81.2,261.7"/>
	<path style="clip-path:url(#SVGID_00000031919988361928395190000000031146729912601237_);fill:#FFFFFF;" d="M448.1,150.7
		c-6.1,0-9.3-5.1-12.1-6.7c-2.8-1.6-9-1.2-9-1.2c-13.1,0.1-29.7,0-35.4,0l0.1,7.3l0.1,0.4c0,0,21.3,0.1,37.4,0.1c0,0,6.2-0.4,9,1.2
		c2.8,1.6,6,6.6,12.1,6.7l48,0.1l-0.1-7.6L448.1,150.7z"/>
	
		<rect x="377.5" y="111.6" transform="matrix(0.9999 -1.525114e-02 1.525114e-02 0.9999 -1.717 5.8301)" style="clip-path:url(#SVGID_00000031919988361928395190000000031146729912601237_);fill:#FF0000;" width="7.8" height="7.8"/>
	<path style="clip-path:url(#SVGID_00000031919988361928395190000000031146729912601237_);fill:#FFFFFF;" d="M484.3,114.8l-45.1-0.1
		c-6.1-0.1-9.3-5.1-12.1-6.7c-2.8-1.6-9-1.2-9-1.2c-8.4,0-18.2,0-25.6,0l0.1,7.6c7.6,0,18.6,0.1,27.8,0c0,0,6.2-0.4,9,1.2
		c2.8,1.6,6,6.6,12.1,6.7l43,0.1L484.3,114.8z"/>
	<path style="clip-path:url(#SVGID_00000031919988361928395190000000031146729912601237_);fill:#FFFFFF;" d="M464.1,103.1l-27.6-0.1
		c-6.1-0.1-9.3-5.1-12.1-6.7c-2.8-1.6-9-1.2-9-1.2c-5.6,0-11.8,0-17.5,0l0.1,7.6c6.3,0,13.4,0,19.6,0c0,0,6.2-0.4,9,1.2
		c2.8,1.6,6,6.6,12.1,6.7l25.5,0.1L464.1,103.1z"/>
	<path style="clip-path:url(#SVGID_00000031919988361928395190000000031146729912601237_);fill:#FFFFFF;" d="M451.5,90.8l-5,0.1
		l-12.7-0.1c-6.1-0.1-9.3-5.1-12.1-6.7c-2.8-1.6-9-1.2-9-1.2c-3.3,0-6.8,0-10.3,0l0.1,7.6c4.2,0,8.5,0,12.4,0c0,0,6.2-0.4,9,1.2
		c2.8,1.6,6,6.6,12.1,6.7h15.6L451.5,90.8z"/>
	<path style="clip-path:url(#SVGID_00000031919988361928395190000000031146729912601237_);fill:#FFFFFF;" d="M431.1,79
		c-2.7,0-4.8-1-6.6-2.2l0.1,5.9c2.2,1.9,4.9,3.9,8.8,3.9l10.6,0.1l-0.1-7.6L431.1,79z"/>
	<path style="clip-path:url(#SVGID_00000031919988361928395190000000031146729912601237_);fill:#FFDE00;" d="M445.4,139.2
		c-6.1,0-9.3-5.1-12.1-6.7s-9-1.2-9-1.2c-0.7,0-1.4,0-2.2,0l0.1,7.6c1.5,0,3,0,4.3,0c0,0,6.2-0.4,9,1.2c2.8,1.6,6,6.6,12.1,6.7
		l46,0.2l-0.1-7.6L445.4,139.2z"/>
	<path style="clip-path:url(#SVGID_00000031919988361928395190000000031146729912601237_);fill:#FFFFFF;" d="M458.7,162.5l-7.4,0
		c-6.1-0.1-9.3-5.1-12.1-6.7c-2.8-1.6-9-1.2-9-1.2c-13.1,0.1-29.7,0-35.4,0l0.1,7.3l0.1,0.4c0,0,21.3,0.1,37.4,0.1
		c0,0,6.2-0.4,9,1.2c2.8,1.6,6,6.6,12.1,6.7l5.3,0L458.7,162.5z"/>
	<path style="clip-path:url(#SVGID_00000031919988361928395190000000031146729912601237_);fill:#008422;" d="M385.4,119.3l0,7.6
		c0,0,21.4,0.1,37.6,0.1c0,0,6.2-0.4,9,1.2c2.8,1.6,6,6.6,12.1,6.7l38.4,0.3l-0.1-7.6l-40.6-0.3c-6.1-0.1-9.3-5.1-12.1-6.7
		c-2.8-1.6-9-1.2-9-1.2C407.6,119.4,391.1,119.4,385.4,119.3"/>
	<path style="clip-path:url(#SVGID_00000031919988361928395190000000031146729912601237_);fill:#FFFFFF;" d="M84.1,103.6
		c-1.4,1.1-2.2,2.5-2.2,4.3c0,2.2,1,3.8,3,5c2,1.2,4.7,2.4,8.1,3.7c2.3,0.9,4.5,1.8,6.4,2.8s3.6,2.1,5,3.4c1.4,1.3,2.5,2.9,3.3,4.7
		c0.8,1.8,1.2,4,1.2,6.5c0,2.8-0.5,5.2-1.5,7.4c-1,2.2-2.4,4-4.1,5.5c-1.8,1.5-4,2.7-6.5,3.4c-2.5,0.8-5.4,1.2-8.4,1.2
		c-3.7,0-7.3-0.5-10.6-1.5c-3.3-1-6.2-2.4-8.8-4.2l4.9-9.1c2.2,1.6,4.5,2.9,7.1,3.8c2.6,0.9,5.2,1.3,8,1.3c5.9,0,8.8-2.3,8.8-6.9
		c0-1.2-0.2-2.2-0.7-3c-0.5-0.8-1.2-1.6-2.1-2.3c-0.9-0.7-2.1-1.3-3.5-1.9c-1.4-0.6-3.1-1.2-5-1.9c-2.3-0.9-4.4-1.8-6.3-2.8
		c-1.9-1-3.6-2.1-5-3.4c-1.4-1.3-2.5-2.8-3.2-4.5c-0.8-1.7-1.2-3.8-1.2-6.2c0-2.6,0.5-4.9,1.4-6.9c0.9-2,2.2-3.8,3.9-5.2
		c1.7-1.4,3.7-2.5,5.9-3.3c2.3-0.8,4.8-1.1,7.5-1.1c4.8,0,8.8,0.9,11.9,2.8s5.3,4.1,6.5,6.8l-8.7,5.3c-0.9-1.4-2.1-2.6-3.6-3.7
		c-1.5-1-3.6-1.5-6.2-1.5C87.4,102,85.6,102.5,84.1,103.6"/>
	<path style="clip-path:url(#SVGID_00000031919988361928395190000000031146729912601237_);fill:#FFFFFF;" d="M160,109.7h8.9l1.2,5
		c1.6-1.7,3.5-3.1,5.7-4.2c2.2-1.1,4.9-1.7,8-1.7c5,0,8.8,1.5,11.3,4.5c2.6,3,3.9,7.3,3.9,12.8v24.6h-10.1v-23.1
		c0-6.4-2.7-9.7-8.2-9.7c-2.1,0-4,0.5-5.8,1.5c-1.8,1-3.4,2.3-4.7,3.9v27.4H160V109.7z"/>
	<path style="clip-path:url(#SVGID_00000031919988361928395190000000031146729912601237_);fill:#FFFFFF;" d="M258.4,167.4
		c-2.9-0.7-5.7-1.8-8.4-3.2l3.6-8.4c2.3,1.2,4.6,2.1,7.1,2.8c2.4,0.7,5.2,1,8.3,1c3.4,0,6.2-1,8.5-2.9c2.2-1.9,3.4-4.7,3.4-8.5v-4.7
		c-1.4,2.2-3.2,3.9-5.7,5.2c-2.4,1.3-5.2,1.9-8.4,1.9c-2.8,0-5.4-0.5-7.7-1.5c-2.3-1-4.3-2.4-5.9-4.1c-1.7-1.8-2.9-3.9-3.8-6.4
		c-0.9-2.5-1.3-5.3-1.3-8.4c0-3.1,0.5-6,1.5-8.6c1-2.6,2.4-4.8,4.2-6.7c1.8-1.9,3.9-3.4,6.4-4.4c2.5-1.1,5.2-1.6,8.3-1.6
		c2.8,0,5.2,0.4,7.4,1.2c2.2,0.8,4,1.7,5.6,2.9l0.4-3.2h9.2v38c0,3.5-0.5,6.6-1.6,9.2c-1.1,2.6-2.5,4.8-4.5,6.5
		c-1.9,1.7-4.2,3-6.9,3.8c-2.7,0.8-5.7,1.3-9,1.3C264.8,168.4,261.3,168.1,258.4,167.4 M261.1,138.6c1.9,2.2,4.6,3.2,8,3.2
		c1.7,0,3.3-0.3,4.7-1c1.4-0.6,2.7-1.5,3.7-2.6s1.9-2.3,2.5-3.7c0.6-1.4,0.9-2.9,0.9-4.5V121c-1.2-0.9-2.7-1.7-4.5-2.4
		c-1.8-0.7-3.8-1-6.1-1c-1.8,0-3.4,0.3-4.9,1c-1.5,0.6-2.7,1.5-3.8,2.7c-1.1,1.1-1.9,2.5-2.5,4c-0.6,1.5-0.9,3.2-0.9,5
		C258.2,133.6,259.2,136.4,261.1,138.6"/>
	<path style="clip-path:url(#SVGID_00000031919988361928395190000000031146729912601237_);fill:#FFFFFF;" d="M324.6,149.6
		c-2.6,1.3-5.5,2-8.5,2c-2.8,0-5.3-0.5-7.6-1.5c-2.3-1-4.3-2.4-6-4.2c-1.7-1.8-3-4-4-6.6c-0.9-2.6-1.4-5.5-1.4-8.7
		c0-3.2,0.5-6.2,1.6-8.9c1.1-2.7,2.5-5,4.4-6.9c1.9-1.9,4.1-3.4,6.7-4.4c2.6-1.1,5.4-1.6,8.5-1.6c2.3,0,4.5,0.3,6.6,0.9
		c2.1,0.6,4,1.4,5.7,2.4l0.3-2.5h9.1v25.5c0,1.6,0.3,3,0.8,4.3c0.5,1.3,1.6,2.3,3.3,3.1l-4.5,8.8c-2.2-0.5-4-1.5-5.4-2.8
		c-1.5-1.4-2.6-3-3.3-4.9C329.3,146.3,327.2,148.3,324.6,149.6 M325.2,118.8c-1.7-0.5-3.5-0.7-5.4-0.7c-3.9,0-6.9,1.2-9.1,3.5
		c-2.1,2.3-3.2,5.4-3.2,9.1c0,3.6,1,6.4,3,8.5c2,2.1,4.6,3.2,7.9,3.2c1.7,0,3.3-0.3,4.7-1c1.4-0.7,2.7-1.6,3.7-2.8
		c1-1.2,1.8-2.5,2.4-4.1c0.5-1.6,0.8-3.3,0.7-5.1v-8.8C328.5,119.9,326.9,119.3,325.2,118.8"/>
	<polygon style="clip-path:url(#SVGID_00000031919988361928395190000000031146729912601237_);fill:#FFFFFF;" points="240.2,90.8 
		228.8,90.8 219.2,104 229.7,104 	"/>
	<path style="clip-path:url(#SVGID_00000031919988361928395190000000031146729912601237_);fill:#FFFFFF;" d="M240.4,140.4
		c-1.7,0.8-3.6,1.4-5.6,1.8c-2.1,0.5-4.4,0.7-6.9,0.7c-3.8,0-6.8-0.8-8.9-2.5c-2.1-1.7-3.4-4.1-3.9-7.4h29.5v-1.5
		c0-3.7-0.5-6.9-1.5-9.7c-1-2.8-2.3-5.2-4.1-7.1c-1.8-1.9-3.8-3.3-6.2-4.3c-2.4-1-5-1.5-7.7-1.5c-2.9,0-5.5,0.5-8,1.5
		c-2.5,1-4.6,2.4-6.5,4.3c-1.8,1.8-3.2,4.1-4.3,6.7c-1,2.7-1.5,5.6-1.5,8.9c0,3.1,0.5,5.9,1.6,8.5c1.1,2.6,2.6,4.8,4.5,6.7
		c1.9,1.9,4.3,3.4,7.1,4.4c2.8,1.1,5.8,1.6,9.3,1.6c3.6,0,6.6-0.3,9-0.9c1.5-0.4,2.9-0.8,4.2-1.3V140.4z M218.8,119.2
		c1.8-1.6,3.9-2.4,6.4-2.4c2.3,0,4.3,0.8,6,2.4c1.8,1.6,2.8,3.8,3.1,6.7h-19C215.9,123,217.1,120.8,218.8,119.2"/>
	<polygon style="clip-path:url(#SVGID_00000031919988361928395190000000031146729912601237_);fill:#FFFFFF;" points="149.3,90.8 
		137.9,90.8 128.3,104 138.8,104 	"/>
	<path style="clip-path:url(#SVGID_00000031919988361928395190000000031146729912601237_);fill:#FFFFFF;" d="M149.7,140.4
		c-1.7,0.8-3.6,1.4-5.8,1.9c-2.1,0.5-4.4,0.7-6.9,0.7c-3.8,0-6.8-0.8-8.9-2.5c-2.1-1.7-3.4-4.1-3.9-7.4h29.5v-1.5
		c0-3.7-0.5-6.9-1.5-9.7c-1-2.8-2.3-5.2-4.1-7.1c-1.8-1.9-3.8-3.3-6.2-4.3c-2.4-1-5-1.5-7.7-1.5c-2.9,0-5.5,0.5-8,1.5
		c-2.5,1-4.6,2.4-6.5,4.3c-1.8,1.8-3.2,4.1-4.3,6.7c-1,2.7-1.5,5.6-1.5,8.9c0,3.1,0.5,5.9,1.6,8.5c1.1,2.6,2.6,4.8,4.5,6.7
		c1.9,1.9,4.3,3.4,7.1,4.4c2.8,1.1,5.8,1.6,9.3,1.6c3.6,0,6.6-0.3,9-0.9c1.5-0.4,3-0.8,4.3-1.3V140.4z M127.9,119.2
		c1.8-1.6,3.9-2.4,6.4-2.4c2.3,0,4.3,0.8,6,2.4c1.8,1.6,2.8,3.8,3.1,6.7h-19C125,123,126.2,120.8,127.9,119.2"/>
	<path style="clip-path:url(#SVGID_00000031919988361928395190000000031146729912601237_);fill:#FFFFFF;" d="M367.5,141.9
		c-5.6-0.4-8.4-3.3-8.4-9V90.8h-10.1v43.5c0,5.9,1.5,10.2,4.4,12.9c2.9,2.7,7.5,4.1,13.8,4.1h0.3V141.9z"/>
	<path style="clip-path:url(#SVGID_00000031919988361928395190000000031146729912601237_);fill:#FFFFFF;" d="M68.7,183h8.9l1.2,5
		c1.6-1.7,3.5-3.1,5.7-4.2c2.2-1.1,4.9-1.7,8-1.7c5,0,8.8,1.5,11.3,4.5c2.6,3,3.9,7.3,3.9,12.8v24.6H97.5V201c0-6.4-2.7-9.7-8.2-9.7
		c-2.1,0-4,0.5-5.8,1.5c-1.8,1-3.4,2.3-4.7,3.9v27.4H68.7V183z"/>
	<path style="clip-path:url(#SVGID_00000031919988361928395190000000031146729912601237_);fill:#FFFFFF;" d="M126.4,206.1
		c0,3.2,0.7,5.6,2.2,7.3c1.4,1.6,3.5,2.5,6.3,2.5c2.1,0,4-0.5,5.7-1.5c1.8-1,3.3-2.3,4.5-3.8V183h10.1v41.2h-8.9l-1.2-5
		c-1.6,1.7-3.4,3.1-5.6,4.2c-2.1,1.1-4.7,1.7-7.8,1.7c-5.1,0-8.9-1.5-11.6-4.5c-2.6-3-3.9-7.3-3.9-12.8V183h10.1V206.1z"/>
	<path style="clip-path:url(#SVGID_00000031919988361928395190000000031146729912601237_);fill:#FFFFFF;" d="M164.4,183h8.9l1.2,5
		c1.5-1.7,3.3-3.1,5.5-4.2c2.1-1.1,4.7-1.7,7.6-1.7c6,0,10.2,2.4,12.5,7.1c1.7-1.9,3.8-3.6,6.2-5c2.4-1.4,5.3-2.1,8.6-2.1
		c4.7,0,8.3,1.4,10.7,4.3c2.4,2.9,3.6,7,3.6,12.4v25.2h-10.1v-23.8c0-3.1-0.6-5.4-1.9-6.8c-1.2-1.5-3.1-2.2-5.5-2.2
		c-1.9,0-3.8,0.5-5.5,1.5c-1.7,1-3.2,2.2-4.5,3.6c0.1,0.4,0.1,0.8,0.1,1.2v1.3v25.2h-10.1v-23.8c0-3.1-0.6-5.4-1.9-6.8
		c-1.2-1.5-3.1-2.2-5.5-2.2c-1.9,0-3.8,0.5-5.5,1.5c-1.7,1-3.2,2.3-4.4,3.8v27.4h-10.1V183z"/>
	
		<rect x="310.1" y="183" style="clip-path:url(#SVGID_00000031919988361928395190000000031146729912601237_);fill:#FFFFFF;" width="10.1" height="41.1"/>
	
		<rect x="310.1" y="171" style="clip-path:url(#SVGID_00000031919988361928395190000000031146729912601237_);fill:#FFFFFF;" width="10.1" height="9.5"/>
	<path style="clip-path:url(#SVGID_00000031919988361928395190000000031146729912601237_);fill:#FFFFFF;" d="M337.7,223.4
		c-2.3-1-4.3-2.4-5.9-4.3c-1.7-1.8-2.9-4-3.9-6.6c-0.9-2.6-1.4-5.4-1.4-8.6c0-3.2,0.5-6.2,1.6-8.8c1.1-2.7,2.5-4.9,4.4-6.9
		c1.9-1.9,4.1-3.4,6.7-4.5c2.6-1.1,5.4-1.6,8.5-1.6c2.5,0,4.8,0.4,6.9,1.1c2.1,0.7,3.9,1.5,5.4,2.4l0.3-2.7h9.2v58.1h-10.1v-23.3
		c-1.4,2.3-3.4,4-5.8,5.2c-2.5,1.2-5.2,1.8-8.2,1.8C342.5,224.9,340,224.4,337.7,223.4 M352.4,214.7c1.4-0.6,2.6-1.6,3.7-2.7
		c1.1-1.2,1.9-2.5,2.4-4.1c0.6-1.6,0.9-3.3,0.9-5.2v-8.2c-1.4-0.9-3-1.6-4.9-2.2c-1.8-0.5-3.7-0.8-5.6-0.8c-1.8,0-3.5,0.3-5,0.9
		c-1.5,0.6-2.7,1.5-3.8,2.6c-1.1,1.1-1.9,2.4-2.4,3.9c-0.6,1.5-0.9,3.3-0.9,5.2c0,3.7,1,6.5,3,8.6c2,2,4.6,3,7.8,3
		C349.4,215.7,351,215.4,352.4,214.7"/>
	<path style="clip-path:url(#SVGID_00000031919988361928395190000000031146729912601237_);fill:#FFFFFF;" d="M388.4,206.1
		c0,3.2,0.7,5.6,2.2,7.3c1.4,1.6,3.5,2.5,6.3,2.5c2.1,0,4-0.5,5.7-1.5c1.8-1,3.3-2.3,4.5-3.8V183h10.1v41.2h-8.9l-1.2-5
		c-1.6,1.7-3.4,3.1-5.6,4.2c-2.1,1.1-4.7,1.7-7.8,1.7c-5.1,0-8.9-1.5-11.6-4.5c-2.6-3-3.9-7.3-3.9-12.8V183h10.1V206.1z"/>
	<path style="clip-path:url(#SVGID_00000031919988361928395190000000031146729912601237_);fill:#FFFFFF;" d="M459.4,214.7l-0.3-1
		c-1.7,0.8-3.7,1.4-5.8,1.9c-2.1,0.5-4.4,0.7-6.9,0.7c-3.8,0-6.8-0.8-8.9-2.5c-2.1-1.7-3.4-4.1-3.9-7.4h29.5v-1.5
		c0-3.7-0.5-6.9-1.5-9.7c-1-2.8-2.3-5.2-4.1-7.1c-1.8-1.9-3.8-3.3-6.2-4.3c-2.4-1-5-1.5-7.7-1.5c-2.9,0-5.5,0.5-8,1.5
		c-2.5,1-4.6,2.4-6.5,4.3c-1.8,1.8-3.2,4.1-4.3,6.7c-1,2.7-1.5,5.6-1.5,8.9c0,3.1,0.5,5.9,1.6,8.5c1.1,2.6,2.6,4.8,4.5,6.7
		c1.9,1.9,4.3,3.4,7.1,4.4c2.8,1.1,5.8,1.6,9.3,1.6c3.6,0,6.6-0.3,9-0.9c1.6-0.4,3.2-0.9,4.6-1.5V214.7z M437.3,192.5
		c1.8-1.6,3.9-2.4,6.4-2.4c2.3,0,4.3,0.8,6,2.4c1.8,1.6,2.8,3.8,3.1,6.7h-19C434.4,196.4,435.6,194.2,437.3,192.5"/>
	<path style="clip-path:url(#SVGID_00000031919988361928395190000000031146729912601237_);fill:#FFFFFF;" d="M304.5,182.8h-1.4
		c-2.5,0-4.8,0.5-6.9,1.6c-2.1,1.1-3.8,2.9-5.1,5.4V183h-10v41.1h10v-26c1.2-1.6,2.9-3.1,5.1-4.3c2.1-1.3,4.9-1.9,8.3-1.9V182.8z"/>
	<path style="clip-path:url(#SVGID_00000031919988361928395190000000031146729912601237_);fill:#FFFFFF;" d="M270.8,213.7
		c-1.7,0.8-3.7,1.4-5.8,1.9c-2.1,0.5-4.4,0.7-6.9,0.7c-3.8,0-6.8-0.8-8.9-2.5c-2.1-1.7-3.4-4.1-3.9-7.4h29.5v-1.5
		c0-3.7-0.5-6.9-1.5-9.7c-1-2.8-2.3-5.2-4.1-7.1c-1.8-1.9-3.8-3.3-6.2-4.3c-2.4-1-5-1.5-7.7-1.5c-2.9,0-5.5,0.5-8,1.5
		c-2.5,1-4.6,2.4-6.5,4.3c-1.8,1.8-3.2,4.1-4.3,6.7c-1,2.7-1.5,5.6-1.5,8.9c0,3.1,0.5,5.9,1.6,8.5c1.1,2.6,2.6,4.8,4.5,6.7
		c1.9,1.9,4.3,3.4,7.1,4.4c2.8,1.1,5.8,1.6,9.3,1.6c3.6,0,6.6-0.3,9-0.9c1.5-0.4,3-0.8,4.3-1.3V213.7z M249,192.5
		c1.8-1.6,3.9-2.4,6.4-2.4c2.3,0,4.3,0.8,6,2.4s2.8,3.8,3.1,6.7h-19C246.1,196.4,247.3,194.2,249,192.5"/>
	<path style="clip-path:url(#SVGID_00000031919988361928395190000000031146729912601237_);fill:#FFFFFF;" d="M254.5,171.2l-4.5,6.2
		h9.8l4.9-6.2c0,0-0.1,0-0.1,0H254.5z"/>
</g>
</svg>
