<?xml version="1.0" encoding="utf-8"?>
<!-- Generator: Adobe Illustrator 27.3.1, SVG Export Plug-In . SVG Version: 6.00 Build 0)  -->
<svg version="1.1" id="Calque_1" xmlns="http://www.w3.org/2000/svg" xmlns:xlink="http://www.w3.org/1999/xlink" x="0px" y="0px"
	 viewBox="0 0 841.9 595.3" style="enable-background:new 0 0 841.9 595.3;" xml:space="preserve">
<style type="text/css">
	.st0{clip-path:url(#SVGID_00000091003230354986382060000009247977641677882299_);fill:#FFFFFF;}
	.st1{clip-path:url(#SVGID_00000077318578275737502700000002317014005783850162_);fill:#FFFFFF;}
	.st2{clip-path:url(#SVGID_00000145033129436434455030000013582110946472090249_);fill:#FFFFFF;}
	.st3{clip-path:url(#SVGID_00000173850832794465726370000001712819149280644030_);fill:#FFFFFF;}
	.st4{clip-path:url(#SVGID_00000030463098681466252320000016163848863680563377_);fill:#FFFFFF;}
	.st5{clip-path:url(#SVGID_00000049200586710255802600000015696633654604490174_);fill:#E52521;}
	.st6{clip-path:url(#SVGID_00000176759643155844647280000012581371868093253265_);fill:#FFFFFF;}
	.st7{clip-path:url(#SVGID_00000029017087355468963570000004669852232286326969_);fill:#FFFFFF;}
	.st8{clip-path:url(#SVGID_00000167374981834230074010000012971098720372413057_);fill:#FFFFFF;}
	.st9{clip-path:url(#SVGID_00000013167687043137154690000005711223477448876939_);fill:#FFFFFF;}
	.st10{clip-path:url(#SVGID_00000006678070664756650930000014700038018141739908_);fill:#FFDE0D;}
	.st11{clip-path:url(#SVGID_00000077306667163564566840000017631184348205810337_);fill:#FFFFFF;}
	.st12{clip-path:url(#SVGID_00000102505926178642722150000014533792876494150562_);fill:#088537;}
	.st13{clip-path:url(#SVGID_00000109007267209061115120000001123046977809172664_);fill:#FFFFFF;}
	.st14{clip-path:url(#SVGID_00000068655850287607504880000012109552005526458260_);fill:#FFFFFF;}
	.st15{clip-path:url(#SVGID_00000134251389180516556480000017567554992793930671_);fill:#FFFFFF;}
	.st16{clip-path:url(#SVGID_00000041283718118095501640000011158423308234067355_);fill:#FFFFFF;}
	.st17{clip-path:url(#SVGID_00000083769075634497134840000001207016923838412176_);fill:#FFFFFF;}
	.st18{clip-path:url(#SVGID_00000181078471631001225290000017127856839056799663_);fill:#FFFFFF;}
	.st19{clip-path:url(#SVGID_00000130636119837484122770000003428956965772337542_);fill:#FFFFFF;}
	.st20{clip-path:url(#SVGID_00000036215420818921236610000017968625595722283929_);fill:#FFFFFF;}
	.st21{clip-path:url(#SVGID_00000067202911456578405300000001665415495045818019_);fill:#FFFFFF;}
	.st22{clip-path:url(#SVGID_00000067923429524658753110000010399181168693725885_);fill:#FFFFFF;}
	.st23{clip-path:url(#SVGID_00000016778249178102209620000014714671200528244408_);fill:#FFFFFF;}
	.st24{clip-path:url(#SVGID_00000062888892333282693790000012956879349812194215_);fill:#FFFFFF;}
	.st25{clip-path:url(#SVGID_00000114792405503906875540000017605036421817376931_);fill:#FFFFFF;}
	.st26{clip-path:url(#SVGID_00000004547274631724451620000011644020878149791652_);fill:#FFFFFF;}
	.st27{clip-path:url(#SVGID_00000140715787596139540370000001835644935821385387_);fill:#FFFFFF;}
	.st28{clip-path:url(#SVGID_00000155826388336222572260000010419981960970089126_);fill:#FFFFFF;}
	.st29{clip-path:url(#SVGID_00000032620589832529519340000005297032819851631252_);fill:#FFFFFF;}
	.st30{clip-path:url(#SVGID_00000061467275234902671940000014291487691935091080_);fill:#FFFFFF;}
	.st31{clip-path:url(#SVGID_00000036234986575972110280000013325908503922190269_);fill:#FFFFFF;}
	.st32{clip-path:url(#SVGID_00000121265394653253170930000004420404680201586313_);fill:#FFFFFF;}
</style>
<g>
	<g>
		<defs>
			<rect id="SVGID_1_" x="2.5" y="54.8" width="834.3" height="500.7"/>
		</defs>
		<clipPath id="SVGID_00000083058374505769239990000003783431074622780801_">
			<use xlink:href="#SVGID_1_"  style="overflow:visible;"/>
		</clipPath>
		<path style="clip-path:url(#SVGID_00000083058374505769239990000003783431074622780801_);fill:#FFFFFF;" d="M106,438
			c1.5,0.9,3.5,1.6,5.7,1.6c3.4,0,5.3-1.8,5.3-4.3c0-2.4-1.3-3.7-4.7-5c-4.1-1.5-6.6-3.7-6.6-7.2c0-4,3.2-6.8,8.1-6.8
			c2.5,0,4.4,0.6,5.6,1.2l-0.9,2.6c-0.7-0.4-2.5-1.2-4.7-1.2c-3.5,0-4.7,2.1-4.7,3.8c0,2.4,1.5,3.5,5,4.9c4.3,1.6,6.5,3.7,6.5,7.4
			c0,3.8-2.8,7.2-8.8,7.2c-2.5,0-5.2-0.7-6.5-1.6L106,438z"/>
	</g>
	<g>
		<defs>
			<rect id="SVGID_00000080919596191388572610000004392259164407675019_" x="2.5" y="54.8" width="834.3" height="500.7"/>
		</defs>
		<clipPath id="SVGID_00000127015829532718000100000000996468771368315814_">
			<use xlink:href="#SVGID_00000080919596191388572610000004392259164407675019_"  style="overflow:visible;"/>
		</clipPath>
		<path style="clip-path:url(#SVGID_00000127015829532718000100000000996468771368315814_);fill:#FFFFFF;" d="M133.4,434.5l-2.6,7.9
			h-3.4l8.5-25.2h4l8.5,25.2h-3.5l-2.5-7.9H133.4z M141.6,431.9l-2.5-7.2c-0.6-1.6-0.9-3.1-1.3-4.6h-0.1c-0.3,1.5-0.7,2.9-1.2,4.6
			L134,432h7.7V431.9z"/>
	</g>
	<g>
		<defs>
			<rect id="SVGID_00000155864263771916513100000004645191742499652529_" x="2.5" y="54.8" width="834.3" height="500.7"/>
		</defs>
		<clipPath id="SVGID_00000035525517541848610180000003090891253752545710_">
			<use xlink:href="#SVGID_00000155864263771916513100000004645191742499652529_"  style="overflow:visible;"/>
		</clipPath>
		<path style="clip-path:url(#SVGID_00000035525517541848610180000003090891253752545710_);fill:#FFFFFF;" d="M150.1,440
			c0-1.3,0.9-2.4,2.2-2.4c1.3,0,2.2,1,2.2,2.4c0,1.3-0.9,2.4-2.2,2.4C151,442.3,150,441.3,150.1,440"/>
	</g>
	<g>
		<defs>
			<rect id="SVGID_00000177467600464385497490000005360629851241046176_" x="2.5" y="54.8" width="834.3" height="500.7"/>
		</defs>
		<clipPath id="SVGID_00000036216033012456626450000013857853744787648681_">
			<use xlink:href="#SVGID_00000177467600464385497490000005360629851241046176_"  style="overflow:visible;"/>
		</clipPath>
		<path style="clip-path:url(#SVGID_00000036216033012456626450000013857853744787648681_);fill:#FFFFFF;" d="M122,440
			c0-1.3,0.9-2.4,2.2-2.4c1.3,0,2.2,1,2.2,2.4c0,1.3-0.9,2.4-2.2,2.4C122.9,442.3,122,441.3,122,440"/>
	</g>
	<g>
		<defs>
			<rect id="SVGID_00000116210907318871648830000003147016782246014609_" x="2.5" y="54.8" width="834.3" height="500.7"/>
		</defs>
		<clipPath id="SVGID_00000158721371197192992220000001493253862614292658_">
			<use xlink:href="#SVGID_00000116210907318871648830000003147016782246014609_"  style="overflow:visible;"/>
		</clipPath>
		<path style="clip-path:url(#SVGID_00000158721371197192992220000001493253862614292658_);fill:#FFFFFF;" d="M662,276.6
			c-9,0-13.7-7.5-17.8-9.9S631,265,631,265c-19.3,0.1-43.7,0-52.1,0l0.1,10.7l0.1,0.6c0,0,31.3,0.1,55,0.1c0,0,9.1-0.6,13.2,1.8
			s8.8,9.7,17.8,9.9l70.6,0.1l-0.1-11.2L662,276.6z"/>
	</g>
	<g>
		<defs>
			
				<rect id="SVGID_00000007416989774628003280000004882688409844114603_" x="3.8" y="57" transform="matrix(0.9999 -1.525089e-02 1.525089e-02 0.9999 -4.6382 6.4555)" width="834.4" height="500.7"/>
		</defs>
		<clipPath id="SVGID_00000174577421937294621120000007801906876733725095_">
			<use xlink:href="#SVGID_00000007416989774628003280000004882688409844114603_"  style="overflow:visible;"/>
		</clipPath>
		
			<rect x="558.1" y="219" transform="matrix(0.9999 -1.525089e-02 1.525089e-02 0.9999 -3.3626 8.6256)" style="clip-path:url(#SVGID_00000174577421937294621120000007801906876733725095_);fill:#E52521;" width="11.5" height="11.5"/>
	</g>
	<g>
		<defs>
			<rect id="SVGID_00000053529413698314286960000003865862706873269925_" x="2.5" y="54.8" width="834.3" height="500.7"/>
		</defs>
		<clipPath id="SVGID_00000137096225968030658160000008963966474770016924_">
			<use xlink:href="#SVGID_00000053529413698314286960000003865862706873269925_"  style="overflow:visible;"/>
		</clipPath>
		<path style="clip-path:url(#SVGID_00000137096225968030658160000008963966474770016924_);fill:#FFFFFF;" d="M715.3,223.8
			l-66.4-0.1c-9-0.1-13.7-7.5-17.8-9.9c-4.1-2.4-13.2-1.8-13.2-1.8c-12.4,0-26.8,0-37.7,0l0.1,11.2c11.2,0,27.4,0.1,40.9,0
			c0,0,9.1-0.6,13.2,1.8c4.1,2.4,8.8,9.7,17.8,9.9l63.3,0.1L715.3,223.8z"/>
	</g>
	<g>
		<defs>
			<rect id="SVGID_00000053534908869502277720000007158935528044185272_" x="2.5" y="54.8" width="834.3" height="500.7"/>
		</defs>
		<clipPath id="SVGID_00000016048898744479564110000011662853541337373373_">
			<use xlink:href="#SVGID_00000053534908869502277720000007158935528044185272_"  style="overflow:visible;"/>
		</clipPath>
		<path style="clip-path:url(#SVGID_00000016048898744479564110000011662853541337373373_);fill:#FFFFFF;" d="M685.6,206.5
			l-40.6-0.1c-9-0.1-13.7-7.5-17.8-9.9c-4.1-2.4-13.2-1.8-13.2-1.8c-8.2,0-17.4,0-25.8,0l0.1,11.2c9.3,0,19.7,0,28.8,0
			c0,0,9.1-0.6,13.2,1.8c4.1,2.4,8.8,9.7,17.8,9.9l37.5,0.1L685.6,206.5z"/>
	</g>
	<g>
		<defs>
			<rect id="SVGID_00000171716928323348340500000001326626754949903250_" x="2.5" y="54.8" width="834.3" height="500.7"/>
		</defs>
		<clipPath id="SVGID_00000018202981219504738950000017946421076074404258_">
			<use xlink:href="#SVGID_00000171716928323348340500000001326626754949903250_"  style="overflow:visible;"/>
		</clipPath>
		<path style="clip-path:url(#SVGID_00000018202981219504738950000017946421076074404258_);fill:#FFFFFF;" d="M667,188.4l-7.4,0.1
			l-18.7-0.1c-9-0.1-13.7-7.5-17.8-9.9c-4.1-2.4-13.2-1.8-13.2-1.8c-4.9,0-10,0-15.2,0l0.1,11.2c6.2,0,12.5,0,18.2,0
			c0,0,9.1-0.6,13.2,1.8c4.1,2.4,8.8,9.7,17.8,9.9h23L667,188.4z"/>
	</g>
	<g>
		<defs>
			<rect id="SVGID_00000145766878254155716810000000158312430589959835_" x="2.5" y="54.8" width="834.3" height="500.7"/>
		</defs>
		<clipPath id="SVGID_00000003817077833629173580000007425119285782576795_">
			<use xlink:href="#SVGID_00000145766878254155716810000000158312430589959835_"  style="overflow:visible;"/>
		</clipPath>
		<path style="clip-path:url(#SVGID_00000003817077833629173580000007425119285782576795_);fill:#FFFFFF;" d="M637,171.1
			c-4,0-7.1-1.5-9.7-3.2l0.1,8.7c3.2,2.8,7.2,5.7,13,5.7l15.6,0.1l-0.1-11.2L637,171.1z"/>
	</g>
	<g>
		<defs>
			<rect id="SVGID_00000099645952620435658730000004204870424043687069_" x="2.5" y="54.8" width="834.3" height="500.7"/>
		</defs>
		<clipPath id="SVGID_00000005975421410055751550000015492429064439572139_">
			<use xlink:href="#SVGID_00000099645952620435658730000004204870424043687069_"  style="overflow:visible;"/>
		</clipPath>
		<path style="clip-path:url(#SVGID_00000005975421410055751550000015492429064439572139_);fill:#FFDE0D;" d="M658,259.7
			c-9,0-13.7-7.5-17.8-9.9c-4.1-2.4-13.2-1.8-13.2-1.8c-1,0-2.1,0-3.2,0l0.1,11.2c2.2,0,4.4,0,6.3,0c0,0,9.1-0.6,13.2,1.8
			c4.1,2.4,8.8,9.7,17.8,9.9l67.7,0.3l-0.1-11.2L658,259.7z"/>
	</g>
	<g>
		<defs>
			<rect id="SVGID_00000134964578975385195740000005294264994985864077_" x="2.5" y="54.8" width="834.3" height="500.7"/>
		</defs>
		<clipPath id="SVGID_00000118396968845972623370000012646990196653271197_">
			<use xlink:href="#SVGID_00000134964578975385195740000005294264994985864077_"  style="overflow:visible;"/>
		</clipPath>
		<path style="clip-path:url(#SVGID_00000118396968845972623370000012646990196653271197_);fill:#FFFFFF;" d="M677.6,294h-10.9
			c-9-0.1-13.7-7.5-17.8-9.9c-4.1-2.4-13.2-1.8-13.2-1.8c-19.3,0.1-43.7,0-52.1,0l0.1,10.7l0.1,0.6c0,0,31.3,0.1,55,0.1
			c0,0,9.1-0.6,13.2,1.8c4.1,2.4,8.8,9.7,17.8,9.9h7.8L677.6,294z"/>
	</g>
	<g>
		<defs>
			<rect id="SVGID_00000003819851895182381480000018299455103043912886_" x="2.5" y="54.8" width="834.3" height="500.7"/>
		</defs>
		<clipPath id="SVGID_00000031922409020274564380000015676963887433320107_">
			<use xlink:href="#SVGID_00000003819851895182381480000018299455103043912886_"  style="overflow:visible;"/>
		</clipPath>
		<path style="clip-path:url(#SVGID_00000031922409020274564380000015676963887433320107_);fill:#088537;" d="M569.7,230.4v11.2
			c0,0,31.5,0.1,55.3,0.1c0,0,9.1-0.6,13.2,1.8c4.1,2.4,8.8,9.7,17.8,9.9l56.5,0.4l-0.1-11.2l-59.8-0.4c-9-0.1-13.7-7.5-17.8-9.9
			c-4.1-2.4-13.2-1.8-13.2-1.8C602.4,230.5,578.1,230.5,569.7,230.4"/>
	</g>
	<g>
		<defs>
			<rect id="SVGID_00000121967777668311530010000017254218309004884105_" x="2.5" y="54.8" width="834.3" height="500.7"/>
		</defs>
		<clipPath id="SVGID_00000034048172989098291170000002852581526280758973_">
			<use xlink:href="#SVGID_00000121967777668311530010000017254218309004884105_"  style="overflow:visible;"/>
		</clipPath>
		<path style="clip-path:url(#SVGID_00000034048172989098291170000002852581526280758973_);fill:#FFFFFF;" d="M126.3,207.3
			c-2.1,1.6-3.2,3.7-3.2,6.3c0,3.2,1.5,5.6,4.4,7.4c2.9,1.8,6.9,3.5,11.9,5.4c3.4,1.3,6.6,2.6,9.4,4.1c2.8,1.5,5.3,3.1,7.4,5
			s3.7,4.3,4.9,6.9c1.2,2.6,1.8,5.9,1.8,9.6c0,4.1-0.7,7.7-2.2,10.9c-1.5,3.2-3.5,5.9-6,8.1c-2.6,2.2-5.9,4-9.6,5
			c-3.7,1.2-7.9,1.8-12.4,1.8c-5.4,0-10.7-0.7-15.6-2.2c-4.9-1.5-9.1-3.5-13-6.2l7.2-13.4c3.2,2.4,6.6,4.3,10.4,5.6
			c3.8,1.3,7.7,1.9,11.8,1.9c8.7,0,13-3.4,13-10.2c0-1.8-0.3-3.2-1-4.4c-0.7-1.2-1.8-2.4-3.1-3.4c-1.3-1-3.1-1.9-5.2-2.8
			c-2.1-0.9-4.6-1.8-7.4-2.8c-3.4-1.3-6.5-2.6-9.3-4.1c-2.8-1.5-5.3-3.1-7.4-5s-3.7-4.1-4.7-6.6c-1.2-2.5-1.8-5.6-1.8-9.1
			c0-3.8,0.7-7.2,2.1-10.2c1.3-2.9,3.2-5.6,5.7-7.7c2.5-2.1,5.4-3.7,8.7-4.9c3.4-1.2,7.1-1.6,11-1.6c7.1,0,13,1.3,17.5,4.1
			c4.6,2.8,7.8,6,9.6,10l-12.8,7.8c-1.3-2.1-3.1-3.8-5.3-5.4c-2.2-1.5-5.3-2.2-9.1-2.2C131.2,204.9,128.5,205.7,126.3,207.3"/>
	</g>
	<g>
		<defs>
			<rect id="SVGID_00000105400469580656696220000015670168579092982656_" x="2.5" y="54.8" width="834.3" height="500.7"/>
		</defs>
		<clipPath id="SVGID_00000155839428268980982840000007648088256455235202_">
			<use xlink:href="#SVGID_00000105400469580656696220000015670168579092982656_"  style="overflow:visible;"/>
		</clipPath>
		<path style="clip-path:url(#SVGID_00000155839428268980982840000007648088256455235202_);fill:#FFFFFF;" d="M238,216.2h13.1
			l1.8,7.4c2.4-2.5,5.2-4.6,8.4-6.2s7.2-2.5,11.8-2.5c7.4,0,13,2.2,16.6,6.6c3.8,4.4,5.7,10.7,5.7,18.8v36.2h-14.9v-34
			c0-9.4-4-14.3-12.1-14.3c-3.1,0-5.9,0.7-8.5,2.2s-5,3.4-6.9,5.7v40.3h-15V216.2z"/>
	</g>
	<g>
		<defs>
			<rect id="SVGID_00000118392486278584139150000009353189399422726547_" x="2.5" y="54.8" width="834.3" height="500.7"/>
		</defs>
		<clipPath id="SVGID_00000111899797224875113380000009968903860374242441_">
			<use xlink:href="#SVGID_00000118392486278584139150000009353189399422726547_"  style="overflow:visible;"/>
		</clipPath>
		<path style="clip-path:url(#SVGID_00000111899797224875113380000009968903860374242441_);fill:#FFFFFF;" d="M382.8,301.2
			c-4.3-1-8.4-2.6-12.4-4.7l5.3-12.4c3.4,1.8,6.8,3.1,10.4,4.1c3.5,1,7.7,1.5,12.2,1.5c5,0,9.1-1.5,12.5-4.3c3.2-2.8,5-6.9,5-12.5
			V266c-2.1,3.2-4.7,5.7-8.4,7.7c-3.5,1.9-7.7,2.8-12.4,2.8c-4.1,0-7.9-0.7-11.3-2.2c-3.4-1.5-6.3-3.5-8.7-6
			c-2.5-2.6-4.3-5.7-5.6-9.4s-1.9-7.8-1.9-12.4c0-4.6,0.7-8.8,2.2-12.7c1.5-3.8,3.5-7.1,6.2-9.9c2.6-2.8,5.7-5,9.4-6.5
			c3.7-1.6,7.7-2.4,12.2-2.4c4.1,0,7.7,0.6,10.9,1.8c3.2,1.2,5.9,2.5,8.2,4.3l0.6-4.7H431v55.9c0,5.2-0.7,9.7-2.4,13.5
			s-3.7,7.1-6.6,9.6c-2.8,2.5-6.2,4.4-10.2,5.6c-4,1.2-8.4,1.9-13.2,1.9C392.2,302.6,387.1,302.2,382.8,301.2 M386.8,258.8
			c2.8,3.2,6.8,4.7,11.8,4.7c2.5,0,4.9-0.4,6.9-1.5c2.1-0.9,4-2.2,5.4-3.8c1.5-1.6,2.8-3.4,3.7-5.4c0.9-2.1,1.3-4.3,1.3-6.6v-13.2
			c-1.8-1.3-4-2.5-6.6-3.5c-2.6-1-5.6-1.5-9-1.5c-2.6,0-5,0.4-7.2,1.5c-2.2,0.9-4,2.2-5.6,4c-1.6,1.6-2.8,3.7-3.7,5.9
			s-1.3,4.7-1.3,7.4C382.5,251.4,384,255.5,386.8,258.8"/>
	</g>
	<g>
		<defs>
			<rect id="SVGID_00000166661996649467874710000010209967284044580529_" x="2.5" y="54.8" width="834.3" height="500.7"/>
		</defs>
		<clipPath id="SVGID_00000131347473422878111100000012042243435814411675_">
			<use xlink:href="#SVGID_00000166661996649467874710000010209967284044580529_"  style="overflow:visible;"/>
		</clipPath>
		<path style="clip-path:url(#SVGID_00000131347473422878111100000012042243435814411675_);fill:#FFFFFF;" d="M480.3,275
			c-3.8,1.9-8.1,2.9-12.5,2.9c-4.1,0-7.8-0.7-11.2-2.2c-3.4-1.5-6.3-3.5-8.8-6.2c-2.5-2.6-4.4-5.9-5.9-9.7
			c-1.3-3.8-2.1-8.1-2.1-12.8s0.7-9.1,2.4-13.1s3.7-7.4,6.5-10.2c2.8-2.8,6-5,9.9-6.5c3.8-1.6,7.9-2.4,12.5-2.4
			c3.4,0,6.6,0.4,9.7,1.3c3.1,0.9,5.9,2.1,8.4,3.5l0.4-3.7h13.4v37.5c0,2.4,0.4,4.4,1.2,6.3c0.7,1.9,2.4,3.4,4.9,4.6l-6.6,13
			c-3.2-0.7-5.9-2.2-7.9-4.1c-2.2-2.1-3.8-4.4-4.9-7.2C487.2,270.1,484.1,273.1,480.3,275 M481.1,229.6c-2.5-0.7-5.2-1-7.9-1
			c-5.7,0-10.2,1.8-13.4,5.2c-3.1,3.4-4.7,7.9-4.7,13.4c0,5.3,1.5,9.4,4.4,12.5s6.8,4.7,11.6,4.7c2.5,0,4.9-0.4,6.9-1.5
			c2.1-1,4-2.4,5.4-4.1c1.5-1.8,2.6-3.7,3.5-6c0.7-2.4,1.2-4.9,1-7.5v-13C486,231.3,483.6,230.4,481.1,229.6"/>
	</g>
	<g>
		<defs>
			<rect id="SVGID_00000033353614943008127610000006538135013638530995_" x="2.5" y="54.8" width="834.3" height="500.7"/>
		</defs>
		<clipPath id="SVGID_00000148629538919891871120000012055487562107180212_">
			<use xlink:href="#SVGID_00000033353614943008127610000006538135013638530995_"  style="overflow:visible;"/>
		</clipPath>
		<polygon style="clip-path:url(#SVGID_00000148629538919891871120000012055487562107180212_);fill:#FFFFFF;" points="356,188.4 
			339.3,188.4 325.1,207.9 340.6,207.9 		"/>
	</g>
	<g>
		<defs>
			<rect id="SVGID_00000070080732693301062640000014436270416159683771_" x="2.5" y="54.8" width="834.3" height="500.7"/>
		</defs>
		<clipPath id="SVGID_00000016764973105661789040000009580207842833918908_">
			<use xlink:href="#SVGID_00000070080732693301062640000014436270416159683771_"  style="overflow:visible;"/>
		</clipPath>
		<path style="clip-path:url(#SVGID_00000016764973105661789040000009580207842833918908_);fill:#FFFFFF;" d="M356.3,261.4
			c-2.5,1.2-5.3,2.1-8.2,2.6c-3.1,0.7-6.5,1-10.2,1c-5.6,0-10-1.2-13.1-3.7c-3.1-2.5-5-6-5.7-10.9h43.4v-2.2
			c0-5.4-0.7-10.2-2.2-14.3c-1.5-4.1-3.4-7.7-6-10.4c-2.6-2.8-5.6-4.9-9.1-6.3s-7.4-2.2-11.3-2.2c-4.3,0-8.1,0.7-11.8,2.2
			s-6.8,3.5-9.6,6.3c-2.6,2.6-4.7,6-6.3,9.9c-1.5,4-2.2,8.2-2.2,13.1c0,4.6,0.7,8.7,2.4,12.5s3.8,7.1,6.6,9.9s6.3,5,10.4,6.5
			c4.1,1.6,8.5,2.4,13.7,2.4c5.3,0,9.7-0.4,13.2-1.3c2.2-0.6,4.3-1.2,6.2-1.9v-13.1H356.3z M324.5,230.2c2.6-2.4,5.7-3.5,9.4-3.5
			c3.4,0,6.3,1.2,8.8,3.5c2.6,2.4,4.1,5.6,4.6,9.9h-28C320.3,235.8,322,232.6,324.5,230.2"/>
	</g>
	<g>
		<defs>
			<rect id="SVGID_00000155845963789238891960000010050479051413094063_" x="2.5" y="54.8" width="834.3" height="500.7"/>
		</defs>
		<clipPath id="SVGID_00000037655761035209791170000006171249290938180760_">
			<use xlink:href="#SVGID_00000155845963789238891960000010050479051413094063_"  style="overflow:visible;"/>
		</clipPath>
		<polygon style="clip-path:url(#SVGID_00000037655761035209791170000006171249290938180760_);fill:#FFFFFF;" points="222.3,188.4 
			205.5,188.4 191.4,207.9 206.8,207.9 		"/>
	</g>
	<g>
		<defs>
			<rect id="SVGID_00000113354365645050559370000011047886507377673401_" x="2.5" y="54.8" width="834.3" height="500.7"/>
		</defs>
		<clipPath id="SVGID_00000178175218406692701240000005805018555350675112_">
			<use xlink:href="#SVGID_00000113354365645050559370000011047886507377673401_"  style="overflow:visible;"/>
		</clipPath>
		<path style="clip-path:url(#SVGID_00000178175218406692701240000005805018555350675112_);fill:#FFFFFF;" d="M222.8,261.4
			c-2.5,1.2-5.3,2.1-8.5,2.8c-3.1,0.7-6.5,1-10.2,1c-5.6,0-10-1.2-13.1-3.7c-3.1-2.5-5-6-5.7-10.9h43.4v-2.2
			c0-5.4-0.7-10.2-2.2-14.3s-3.4-7.7-6-10.4c-2.6-2.8-5.6-4.9-9.1-6.3c-3.5-1.5-7.4-2.2-11.3-2.2c-4.3,0-8.1,0.7-11.8,2.2
			c-3.7,1.5-6.8,3.5-9.6,6.3c-2.6,2.6-4.7,6-6.3,9.9c-1.5,4-2.2,8.2-2.2,13.1c0,4.6,0.7,8.7,2.4,12.5c1.6,3.8,3.8,7.1,6.6,9.9
			c2.8,2.8,6.3,5,10.4,6.5c4.1,1.6,8.5,2.4,13.7,2.4c5.3,0,9.7-0.4,13.2-1.3c2.2-0.6,4.4-1.2,6.3-1.9L222.8,261.4L222.8,261.4z
			 M190.8,230.2c2.6-2.4,5.7-3.5,9.4-3.5c3.4,0,6.3,1.2,8.8,3.5c2.6,2.4,4.1,5.6,4.6,9.9h-28C186.5,235.8,188.3,232.6,190.8,230.2"
			/>
	</g>
	<g>
		<defs>
			<rect id="SVGID_00000177456789864032137860000007175114230020447110_" x="2.5" y="54.8" width="834.3" height="500.7"/>
		</defs>
		<clipPath id="SVGID_00000127746862515200107850000009290081721218888617_">
			<use xlink:href="#SVGID_00000177456789864032137860000007175114230020447110_"  style="overflow:visible;"/>
		</clipPath>
		<path style="clip-path:url(#SVGID_00000127746862515200107850000009290081721218888617_);fill:#FFFFFF;" d="M543.4,263.6
			c-8.2-0.6-12.4-4.9-12.4-13.2v-62h-14.9v64c0,8.7,2.2,15,6.5,19s11,6,20.3,6h0.4L543.4,263.6L543.4,263.6z"/>
	</g>
	<g>
		<defs>
			<rect id="SVGID_00000054962570428856420080000001648250284606612105_" x="2.5" y="54.8" width="834.3" height="500.7"/>
		</defs>
		<clipPath id="SVGID_00000178902881618605551350000006929640475032055434_">
			<use xlink:href="#SVGID_00000054962570428856420080000001648250284606612105_"  style="overflow:visible;"/>
		</clipPath>
		<path style="clip-path:url(#SVGID_00000178902881618605551350000006929640475032055434_);fill:#FFFFFF;" d="M103.6,324.1h13.1
			l1.8,7.4c2.4-2.5,5.2-4.6,8.4-6.2c3.2-1.6,7.2-2.5,11.8-2.5c7.4,0,13,2.2,16.6,6.6c3.8,4.4,5.7,10.7,5.7,18.8v36.2h-15v-33.9
			c0-9.4-4-14.3-12.1-14.3c-3.1,0-5.9,0.7-8.5,2.2c-2.6,1.5-5,3.4-6.9,5.7v40.3h-14.9V324.1z"/>
	</g>
	<g>
		<defs>
			<rect id="SVGID_00000170993308709698777040000012373425069263073156_" x="2.5" y="54.8" width="834.3" height="500.7"/>
		</defs>
		<clipPath id="SVGID_00000156590037771865674170000002267511969657219742_">
			<use xlink:href="#SVGID_00000170993308709698777040000012373425069263073156_"  style="overflow:visible;"/>
		</clipPath>
		<path style="clip-path:url(#SVGID_00000156590037771865674170000002267511969657219742_);fill:#FFFFFF;" d="M188.6,358.1
			c0,4.7,1,8.2,3.2,10.7c2.1,2.4,5.2,3.7,9.3,3.7c3.1,0,5.9-0.7,8.4-2.2c2.6-1.5,4.9-3.4,6.6-5.6v-40.6h14.9v60.6h-13.1l-1.8-7.4
			c-2.4,2.5-5,4.6-8.2,6.2c-3.1,1.6-6.9,2.5-11.5,2.5c-7.5,0-13.1-2.2-17.1-6.6c-3.8-4.4-5.7-10.7-5.7-18.8v-36.5h14.9v34H188.6z"/>
	</g>
	<g>
		<defs>
			<rect id="SVGID_00000089541684783678050350000011935042274640049808_" x="2.5" y="54.8" width="834.3" height="500.7"/>
		</defs>
		<clipPath id="SVGID_00000181075942629789331700000009744113478392357777_">
			<use xlink:href="#SVGID_00000089541684783678050350000011935042274640049808_"  style="overflow:visible;"/>
		</clipPath>
		<path style="clip-path:url(#SVGID_00000181075942629789331700000009744113478392357777_);fill:#FFFFFF;" d="M244.5,324.1h13.1
			l1.8,7.4c2.2-2.5,4.9-4.6,8.1-6.2c3.1-1.6,6.9-2.5,11.2-2.5c8.8,0,15,3.5,18.4,10.4c2.5-2.8,5.6-5.3,9.1-7.4s7.8-3.1,12.7-3.1
			c6.9,0,12.2,2.1,15.7,6.3c3.5,4.3,5.3,10.3,5.3,18.2v37.1H325v-35c0-4.6-0.9-7.9-2.8-10c-1.8-2.2-4.6-3.2-8.1-3.2
			c-2.8,0-5.6,0.7-8.1,2.2s-4.7,3.2-6.6,5.3c0.1,0.6,0.1,1.2,0.1,1.8v1.9v37.1h-14.9v-35c0-4.6-0.9-7.9-2.8-10
			c-1.8-2.2-4.6-3.2-8.1-3.2c-2.8,0-5.6,0.7-8.1,2.2c-2.5,1.5-4.7,3.4-6.5,5.6v40.3h-14.9v-60.2H244.5z"/>
	</g>
	<g>
		<defs>
			<rect id="SVGID_00000085948990288322445010000013844424720036730517_" x="2.5" y="54.8" width="834.3" height="500.7"/>
		</defs>
		<clipPath id="SVGID_00000090983347365594717670000008326532157668951191_">
			<use xlink:href="#SVGID_00000085948990288322445010000013844424720036730517_"  style="overflow:visible;"/>
		</clipPath>
		
			<rect x="458.9" y="324.1" style="clip-path:url(#SVGID_00000090983347365594717670000008326532157668951191_);fill:#FFFFFF;" width="14.9" height="60.5"/>
	</g>
	<g>
		<defs>
			<rect id="SVGID_00000005260073302989775270000007753297360675440268_" x="2.5" y="54.8" width="834.3" height="500.7"/>
		</defs>
		<clipPath id="SVGID_00000036967127798221544570000003614799474963669181_">
			<use xlink:href="#SVGID_00000005260073302989775270000007753297360675440268_"  style="overflow:visible;"/>
		</clipPath>
		
			<rect x="458.9" y="306.5" style="clip-path:url(#SVGID_00000036967127798221544570000003614799474963669181_);fill:#FFFFFF;" width="14.9" height="14"/>
	</g>
	<g>
		<defs>
			<rect id="SVGID_00000012469163084591434220000010477154157891481248_" x="2.5" y="54.8" width="834.3" height="500.7"/>
		</defs>
		<clipPath id="SVGID_00000154411511696438223920000006945936905128594823_">
			<use xlink:href="#SVGID_00000012469163084591434220000010477154157891481248_"  style="overflow:visible;"/>
		</clipPath>
		<path style="clip-path:url(#SVGID_00000154411511696438223920000006945936905128594823_);fill:#FFFFFF;" d="M499.5,383.6
			c-3.4-1.5-6.3-3.5-8.7-6.3c-2.5-2.6-4.3-5.9-5.7-9.7c-1.3-3.8-2.1-7.9-2.1-12.7c0-4.7,0.7-9.1,2.4-13c1.6-4,3.7-7.2,6.5-10.2
			c2.8-2.8,6-5,9.9-6.6c3.8-1.6,7.9-2.4,12.5-2.4c3.7,0,7.1,0.6,10.2,1.6s5.7,2.2,7.9,3.5l0.4-4h13.5v85.5h-14.9v-34.3
			c-2.1,3.4-5,5.9-8.5,7.7c-3.7,1.8-7.7,2.6-12.1,2.6C506.6,385.8,502.9,385.1,499.5,383.6 M521.2,370.8c2.1-0.9,3.8-2.4,5.4-4
			c1.6-1.8,2.8-3.7,3.5-6c0.9-2.4,1.3-4.9,1.3-7.7v-12.1c-2.1-1.3-4.4-2.4-7.2-3.2c-2.6-0.7-5.4-1.2-8.2-1.2c-2.6,0-5.2,0.4-7.4,1.3
			c-2.2,0.9-4,2.2-5.6,3.8c-1.6,1.6-2.8,3.5-3.5,5.7c-0.9,2.2-1.3,4.9-1.3,7.7c0,5.4,1.5,9.6,4.4,12.7c2.9,2.9,6.8,4.4,11.5,4.4
			C516.8,372.3,519.1,371.8,521.2,370.8"/>
	</g>
	<g>
		<defs>
			<rect id="SVGID_00000134956147309267604230000014347576897914312876_" x="2.5" y="54.8" width="834.3" height="500.7"/>
		</defs>
		<clipPath id="SVGID_00000026854555797486857280000011086675204228937107_">
			<use xlink:href="#SVGID_00000134956147309267604230000014347576897914312876_"  style="overflow:visible;"/>
		</clipPath>
		<path style="clip-path:url(#SVGID_00000026854555797486857280000011086675204228937107_);fill:#FFFFFF;" d="M574.2,358.1
			c0,4.7,1,8.2,3.2,10.7c2.1,2.4,5.2,3.7,9.3,3.7c3.1,0,5.9-0.7,8.4-2.2c2.6-1.5,4.9-3.4,6.6-5.6v-40.6h14.9v60.6h-13.1l-1.8-7.4
			c-2.4,2.5-5,4.6-8.2,6.2c-3.1,1.6-6.9,2.5-11.5,2.5c-7.5,0-13.1-2.2-17.1-6.6c-3.8-4.4-5.7-10.7-5.7-18.8v-36.5H574v34H574.2z"/>
	</g>
	<g>
		<defs>
			<rect id="SVGID_00000041986799907386245280000016050443578149919397_" x="2.5" y="54.8" width="834.3" height="500.7"/>
		</defs>
		<clipPath id="SVGID_00000013882179046467084360000003949002702975301011_">
			<use xlink:href="#SVGID_00000041986799907386245280000016050443578149919397_"  style="overflow:visible;"/>
		</clipPath>
		<path style="clip-path:url(#SVGID_00000013882179046467084360000003949002702975301011_);fill:#FFFFFF;" d="M678.7,370.8l-0.4-1.5
			c-2.5,1.2-5.4,2.1-8.5,2.8c-3.1,0.7-6.5,1-10.2,1c-5.6,0-10-1.2-13.1-3.7s-5-6-5.7-10.9h43.4v-2.2c0-5.4-0.7-10.2-2.2-14.3
			s-3.4-7.7-6-10.4c-2.6-2.8-5.6-4.9-9.1-6.3c-3.5-1.5-7.4-2.2-11.3-2.2c-4.3,0-8.1,0.7-11.8,2.2c-3.7,1.5-6.8,3.5-9.6,6.3
			c-2.6,2.6-4.7,6-6.3,9.9c-1.5,4-2.2,8.2-2.2,13.1c0,4.6,0.7,8.7,2.4,12.5c1.6,3.8,3.8,7.1,6.6,9.9s6.3,5,10.4,6.5
			c4.1,1.6,8.5,2.4,13.7,2.4c5.3,0,9.7-0.4,13.2-1.3c2.4-0.6,4.7-1.3,6.8-2.2V370.8L678.7,370.8z M646.1,338.1
			c2.6-2.4,5.7-3.5,9.4-3.5c3.4,0,6.3,1.2,8.8,3.5c2.6,2.4,4.1,5.6,4.6,9.9h-28C641.9,343.8,643.6,340.6,646.1,338.1"/>
	</g>
	<g>
		<defs>
			<rect id="SVGID_00000150075343332079614310000016754064088034461835_" x="2.5" y="54.8" width="834.3" height="500.7"/>
		</defs>
		<clipPath id="SVGID_00000066498524725250324200000011705057694265369267_">
			<use xlink:href="#SVGID_00000150075343332079614310000016754064088034461835_"  style="overflow:visible;"/>
		</clipPath>
		<path style="clip-path:url(#SVGID_00000066498524725250324200000011705057694265369267_);fill:#FFFFFF;" d="M450.7,323.8h-2.1
			c-3.7,0-7.1,0.7-10.2,2.4c-3.1,1.6-5.6,4.3-7.5,7.9v-10h-14.7v60.5H431v-38.3c1.8-2.4,4.3-4.6,7.5-6.3c3.1-1.9,7.2-2.8,12.2-2.8
			V323.8z"/>
	</g>
	<g>
		<defs>
			<rect id="SVGID_00000121257994327096217440000015632152940577766808_" x="2.5" y="54.8" width="834.3" height="500.7"/>
		</defs>
		<clipPath id="SVGID_00000050637401329067699320000008883620831851939483_">
			<use xlink:href="#SVGID_00000121257994327096217440000015632152940577766808_"  style="overflow:visible;"/>
		</clipPath>
		<path style="clip-path:url(#SVGID_00000050637401329067699320000008883620831851939483_);fill:#FFFFFF;" d="M401.1,369.3
			c-2.5,1.2-5.4,2.1-8.5,2.8c-3.1,0.7-6.5,1-10.2,1c-5.6,0-10-1.2-13.1-3.7c-3.1-2.5-5-6-5.7-10.9H407v-2.2c0-5.4-0.7-10.2-2.2-14.3
			c-1.5-4.1-3.4-7.7-6-10.4c-2.6-2.8-5.6-4.9-9.1-6.3c-3.5-1.5-7.4-2.2-11.3-2.2c-4.3,0-8.1,0.7-11.8,2.2c-3.7,1.5-6.8,3.5-9.6,6.3
			c-2.6,2.6-4.7,6-6.3,9.9c-1.5,4-2.2,8.2-2.2,13.1c0,4.6,0.7,8.7,2.4,12.5c1.6,3.8,3.8,7.1,6.6,9.9s6.3,5,10.4,6.5
			c4.1,1.6,8.5,2.4,13.7,2.4c5.3,0,9.7-0.4,13.2-1.3c2.2-0.6,4.4-1.2,6.3-1.9V369.3z M369,338.1c2.6-2.4,5.7-3.5,9.4-3.5
			c3.4,0,6.3,1.2,8.8,3.5c2.5,2.4,4.1,5.6,4.6,9.9h-28C364.7,343.8,366.5,340.6,369,338.1"/>
	</g>
	<g>
		<defs>
			<rect id="SVGID_00000114771071509744516800000005074488970501272764_" x="2.5" y="54.8" width="834.3" height="500.7"/>
		</defs>
		<clipPath id="SVGID_00000157268297055165419890000007715986391147907487_">
			<use xlink:href="#SVGID_00000114771071509744516800000005074488970501272764_"  style="overflow:visible;"/>
		</clipPath>
		<path style="clip-path:url(#SVGID_00000157268297055165419890000007715986391147907487_);fill:#FFFFFF;" d="M377.1,306.8l-6.6,9.1
			h14.4l7.2-9.1H392H377.1z"/>
	</g>
</g>
</svg>
